<svg width="77" height="25" viewBox="0 0 77 25" fill="none" xmlns="http://www.w3.org/2000/svg">
<path d="M12.6419 4.85272V19.4492H9.08638V13.4401H3.55554V19.4492H0V4.85272H3.55554V10.5707H9.08638V4.85272H12.6419Z" fill="#F8F8F2"/>
<path d="M26.1456 13.4609C26.1456 13.7936 26.1248 14.1401 26.0832 14.5005H18.0365C18.0919 15.2213 18.3206 15.7758 18.7226 16.1639C19.1385 16.5382 19.6444 16.7253 20.2405 16.7253C21.1276 16.7253 21.7445 16.3511 22.091 15.6025H25.8753C25.6812 16.3649 25.3278 17.0511 24.8149 17.661C24.3159 18.2709 23.6851 18.7491 22.9227 19.0957C22.1604 19.4422 21.3079 19.6155 20.3653 19.6155C19.2286 19.6155 18.2167 19.3729 17.3295 18.8878C16.4424 18.4026 15.7493 17.7095 15.2503 16.8085C14.7512 15.9075 14.5017 14.854 14.5017 13.648C14.5017 12.442 14.7443 11.3885 15.2295 10.4875C15.7285 9.58651 16.4216 8.89343 17.3087 8.40826C18.1959 7.9231 19.2147 7.68052 20.3653 7.68052C21.4881 7.68052 22.4861 7.91617 23.3594 8.38747C24.2327 8.85877 24.9119 9.53107 25.3971 10.4044C25.8961 11.2776 26.1456 12.2965 26.1456 13.4609ZM22.5069 12.5252C22.5069 11.9153 22.299 11.4301 21.8831 11.0697C21.4673 10.7093 20.9474 10.5291 20.3237 10.5291C19.7276 10.5291 19.2217 10.7024 18.8058 11.0489C18.4038 11.3955 18.1543 11.8876 18.0573 12.5252H22.5069Z" fill="#F8F8F2"/>
<path d="M31.5769 4.0626V19.4492H28.0213V4.0626H31.5769Z" fill="#F8F8F2"/>
<path d="M37.7091 9.48948C38.0556 8.94887 38.5338 8.51223 39.1438 8.17954C39.7537 7.84686 40.4676 7.68052 41.2854 7.68052C42.2419 7.68052 43.1082 7.9231 43.8845 8.40826C44.6607 8.89343 45.2707 9.58651 45.7142 10.4875C46.1717 11.3885 46.4004 12.4351 46.4004 13.6272C46.4004 14.8193 46.1717 15.8728 45.7142 16.7877C45.2707 17.6887 44.6607 18.3887 43.8845 18.8878C43.1082 19.3729 42.2419 19.6155 41.2854 19.6155C40.4814 19.6155 39.7675 19.4492 39.1438 19.1165C38.5338 18.7838 38.0556 18.3541 37.7091 17.8273V24.98H34.1535V7.84686H37.7091V9.48948ZM42.7825 13.6272C42.7825 12.7401 42.533 12.047 42.0339 11.548C41.5488 11.0351 40.9458 10.7786 40.225 10.7786C39.518 10.7786 38.915 11.0351 38.416 11.548C37.9309 12.0608 37.6883 12.7609 37.6883 13.648C37.6883 14.5352 37.9309 15.2352 38.416 15.7481C38.915 16.261 39.518 16.5174 40.225 16.5174C40.9319 16.5174 41.5349 16.261 42.0339 15.7481C42.533 15.2213 42.7825 14.5144 42.7825 13.6272Z" fill="#F8F8F2"/>
<path d="M50.0539 6.64089C49.4301 6.64089 48.9172 6.46069 48.5152 6.10028C48.1271 5.72601 47.933 5.26858 47.933 4.72797C47.933 4.1735 48.1271 3.71606 48.5152 3.35565C48.9172 2.98138 49.4301 2.79425 50.0539 2.79425C50.6638 2.79425 51.1628 2.98138 51.551 3.35565C51.953 3.71606 52.1539 4.1735 52.1539 4.72797C52.1539 5.26858 51.953 5.72601 51.551 6.10028C51.1628 6.46069 50.6638 6.64089 50.0539 6.64089ZM51.8213 7.84686V19.4492H48.2657V7.84686H51.8213Z" fill="#F8F8F2"/>
<path d="M61.2595 19.4492L59.0347 16.2263L57.1633 19.4492H53.3167L57.1426 13.5233L53.2127 7.84686H57.2049L59.4297 11.0489L61.3011 7.84686H65.1477L61.2595 13.6896L65.2517 19.4492H61.2595Z" fill="#F8F8F2"/>
<path d="M76.326 1.09575L73.1924 10.5588L70.2933 9.73126L72.627 0.0399493L76.326 1.09575ZM70.3318 15.2778C69.732 15.1066 69.2883 14.7925 69.0006 14.3356C68.7301 13.8692 68.6691 13.376 68.8175 12.8562C68.9696 12.323 69.2837 11.9298 69.7597 11.6764C70.2489 11.4268 70.7935 11.3877 71.3933 11.5589C71.9798 11.7263 72.4083 12.0432 72.6788 12.5096C72.9626 12.9799 73.0284 13.4816 72.8763 14.0147C72.7279 14.5346 72.409 14.9193 71.9198 15.1688C71.4476 15.4089 70.9183 15.4452 70.3318 15.2778Z" fill="#F8F8F2"/>
</svg>
